<svg xmlns="http://www.w3.org/2000/svg" width="27.456" height="28.901" viewBox="0 0 27.456 28.901">
  <path id="Path_3029" data-name="Path 3029" d="M9.588,27.129V22.71a2.05,2.05,0,0,1,2.057-2.042H15.8a2.065,2.065,0,0,1,1.455.6,2.035,2.035,0,0,1,.6,1.444v4.419a1.753,1.753,0,0,0,.515,1.253,1.779,1.779,0,0,0,1.258.52h2.834a5,5,0,0,0,3.531-1.444,4.927,4.927,0,0,0,1.464-3.5V11.368a3.573,3.573,0,0,0-1.294-2.749L16.523.977a4.476,4.476,0,0,0-5.706.1L1.4,8.619A3.575,3.575,0,0,0,0,11.368V23.943A4.976,4.976,0,0,0,4.994,28.9H7.763a1.779,1.779,0,0,0,1.786-1.76Z" fill="#fff"/>
</svg>
