<svg id="Layer_2" data-name="Layer 2" xmlns="http://www.w3.org/2000/svg" width="24" height="24" viewBox="0 0 24 24">
  <g id="message-square">
    <rect id="Rectangle_1384" data-name="Rectangle 1384" width="24" height="24" opacity="0"/>
    <path id="Subtraction_8" data-name="Subtraction 8" d="M5885-1959a.986.986,0,0,1-.491-.13,1,1,0,0,1-.51-.87v-15a3,3,0,0,1,3-3h14a3,3,0,0,1,3,3v10a3,3,0,0,1-3,3h-10.488a1,1,0,0,0-.512.142l-4.489,2.72A1.008,1.008,0,0,1,5885-1959Zm10.288-10.357h1.5a1.43,1.43,0,0,0,1.289.856,1.465,1.465,0,0,0,1.427-1.5,1.466,1.466,0,0,0-1.427-1.5,1.427,1.427,0,0,0-1.288.855h-1.5a1.428,1.428,0,0,0-1.288-.855,1.431,1.431,0,0,0-1.289.855h-1.5a1.428,1.428,0,0,0-1.288-.855,1.466,1.466,0,0,0-1.426,1.5,1.465,1.465,0,0,0,1.426,1.5,1.429,1.429,0,0,0,1.289-.856h1.5a1.43,1.43,0,0,0,1.289.856,1.427,1.427,0,0,0,1.287-.856Z" transform="translate(-5882 1981)" fill="#fff"/>
  </g>
</svg>
