<svg xmlns="http://www.w3.org/2000/svg" width="22.188" height="23.5" viewBox="0 0 22.188 23.5">
  <g id="Group_2175" data-name="Group 2175" transform="translate(-34.624 -757)">
    <path id="Path_2942" data-name="Path 2942" d="M9.664,17.085a3.472,3.472,0,0,1,1.431.356h.027a.885.885,0,0,1,.143,1.227,3.082,3.082,0,0,1-2.317,1.307,3.685,3.685,0,0,1-2.684-.738,1.625,1.625,0,0,1-.7-1.165c0-.5.465-.729.895-.827a7.461,7.461,0,0,1,1.53-.16H9.664ZM8.537,0c3.1,0,6.289,2.24,6.62,5.485.054.667,0,1.36.054,2.036a5.028,5.028,0,0,0,1.172,2.347A3.657,3.657,0,0,1,17,11.707h0v.2a3.657,3.657,0,0,1-.895,2.418,4.484,4.484,0,0,1-2.818,1.4,37.713,37.713,0,0,1-9.6,0,4.484,4.484,0,0,1-2.854-1.4A3.6,3.6,0,0,1,0,11.912v-.2a3.744,3.744,0,0,1,.6-1.84A5.126,5.126,0,0,0,1.791,7.52c.054-.676,0-1.36.054-2.036C2.185,2.24,5.316,0,8.447,0h.089Z" transform="translate(34.624 760.5)" fill="#fff"/>
    <circle id="Ellipse_85" data-name="Ellipse 85" cx="6.188" cy="6.188" r="6.188" transform="translate(44.436 757)" fill="#282e71"/>
    <text id="_0" data-name="0" transform="translate(48.623 765.188)" fill="#fff" font-size="6" font-family="Montserrat-Bold, Montserrat" font-weight="700"><tspan x="0" y="0">0</tspan></text>
  </g>
</svg>
