<svg xmlns="http://www.w3.org/2000/svg" width="156.681" height="156.681" viewBox="0 0 156.681 156.681">
  <g id="Group_2372" data-name="Group 2372" transform="translate(-109.159 -184)">
    <g id="Group_2147" data-name="Group 2147" transform="translate(109.159 184)">
      <path id="Path_1" data-name="Path 1" d="M78.341,0A78.341,78.341,0,1,1,0,78.341,78.341,78.341,0,0,1,78.341,0Z" transform="translate(0 0)" fill="#233166" opacity="0.1"/>
    </g>
    <g id="Group_2148" data-name="Group 2148" transform="translate(122.273 197.114)">
      <path id="Path_1-2" data-name="Path 1" d="M65.227,0A65.227,65.227,0,1,1,0,65.227,65.227,65.227,0,0,1,65.227,0Z" transform="translate(0 0)" fill="#233166" opacity="0.1"/>
    </g>
    <g id="Group_2149" data-name="Group 2149" transform="translate(136.5 211.34)">
      <path id="Path_1-3" data-name="Path 1" d="M51,0A51,51,0,1,1,0,51,51,51,0,0,1,51,0Z" transform="translate(0 0)" fill="#282e71"/>
    </g>
    <path id="Path_2923" data-name="Path 2923" d="M420.431,254.3c-1.414-1.414-1.414-3.889,0-4.949a3.418,3.418,0,0,1,4.95,0l4.6,4.6,14.141-14.141a3.5,3.5,0,0,1,4.949,4.949L432.45,261.375c-1.414,1.414-3.889,1.414-4.949,0Z" transform="translate(-247.248 11.748)" fill="#fff"/>
  </g>
</svg>
