<svg xmlns="http://www.w3.org/2000/svg" width="13.723" height="13.038" viewBox="0 0 13.723 13.038">
  <path id="Subtraction_10" data-name="Subtraction 10" d="M3465.686-1207.962a.675.675,0,0,1-.335-.089.685.685,0,0,1-.35-.6v-10.293a2.061,2.061,0,0,1,2.059-2.059h9.606a2.07,2.07,0,0,1,2.034,1.748l-.091-.093a.283.283,0,0,0-.2-.081h-3.138a.185.185,0,0,0-.185.185v.369a.185.185,0,0,0,.185.185h2.248l-4.592,4.592a.184.184,0,0,0-.054.131.187.187,0,0,0,.054.131l.258.258a.187.187,0,0,0,.131.054.183.183,0,0,0,.131-.054l4.592-4.588v2.245a.185.185,0,0,0,.185.185h.368a.184.184,0,0,0,.127-.05v3.706a2.061,2.061,0,0,1-2.058,2.059h-7.2a.683.683,0,0,0-.351.1l-3.081,1.865A.681.681,0,0,1,3465.686-1207.962Z" transform="translate(-3465 1221)" fill="#282e71"/>
</svg>
